<?xml version="1.0" encoding="UTF-8"?>
<!DOCTYPE svg PUBLIC "-//W3C//DTD SVG 1.1//EN" "http://www.w3.org/Graphics/SVG/1.1/DTD/svg11.dtd">
<!-- Creator: CorelDRAW X6 -->
<svg xmlns="http://www.w3.org/2000/svg" xml:space="preserve" width="5.26389in" height="2.90278in" version="1.1" style="shape-rendering:geometricPrecision; text-rendering:geometricPrecision; image-rendering:optimizeQuality; fill-rule:evenodd; clip-rule:evenodd"
viewBox="0 0 5264 2903"
 xmlns:xlink="http://www.w3.org/1999/xlink">
 <defs>
  <style type="text/css">
   <![CDATA[
    .fil1 {fill:#EF4542;fill-rule:nonzero}
    .fil0 {fill:#FEFEFE;fill-rule:nonzero}
   ]]>
  </style>
 </defs>
 <g id="Layer_x0020_1">
  <metadata id="CorelCorpID_0Corel-Layer"/>
  <polygon class="fil0" points="1213,355 0,355 0,2903 2144,2903 1212,2532 "/>
  <polygon class="fil1" points="2143,2903 2143,2497 1277,2497 1276,355 1212,355 1212,2532 "/>
  <polygon class="fil0" points="1276,2498 5276,2498 5276,2498 4823,1274 5275,-7 1276,-7 "/>
  <path class="fil1" d="M2718 1646c-11,0 -27,5 -35,15 -6,7 -8,15 -8,26l0 118c0,19 -1,57 -1,57 0,24 0,31 0,36 0,20 7,34 21,44 24,16 95,54 248,54 137,0 243,-28 317,-82 86,-64 114,-172 114,-321 0,-65 -8,-119 -23,-161 -14,-38 -43,-103 -72,-142 -6,-9 -47,-66 -108,-133l-72 -74c-40,-46 -61,-69 -72,-85 -24,-36 -44,-66 -44,-101 0,-38 15,-103 116,-103 24,0 60,3 77,8 65,22 87,26 95,26 45,0 45,-18 45,-48l0 -106 0 -83c0,-49 -12,-62 -33,-67 -24,-6 -74,-18 -133,-23 -27,-3 -58,-4 -86,-4 -10,0 -19,0 -25,1 -85,5 -152,20 -197,44 -112,60 -163,152 -163,319 0,60 3,81 6,98 10,63 47,138 89,198 14,20 22,31 81,109l83 104c40,52 70,84 83,105 31,50 48,80 48,114 0,39 -24,108 -136,108 -58,0 -77,-7 -121,-23 -21,-8 -37,-13 -41,-15 -18,-6 -22,-7 -41,-11l-6 -1c-1,0 -3,-1 -5,-1z"/>
  <path class="fil1" d="M1869 1646c-11,0 -26,5 -35,15 -6,7 -8,15 -8,26l0 118c0,19 -1,57 -1,57 0,24 0,31 0,36 0,20 7,34 21,44 24,16 95,54 248,54 137,0 243,-28 317,-82 85,-64 114,-172 114,-321 0,-65 -8,-119 -23,-161 -13,-38 -43,-103 -72,-142 -6,-9 -47,-66 -108,-133l-72 -74c-40,-46 -61,-69 -72,-85 -24,-36 -45,-66 -45,-101 0,-38 15,-103 116,-103 24,0 60,3 77,8 65,22 87,26 95,26 45,0 44,-18 44,-48l0 -106 0 -83c0,-49 -12,-62 -33,-67 -24,-6 -74,-18 -133,-23 -27,-3 -58,-4 -86,-4 -10,0 -18,0 -25,1 -85,5 -152,20 -197,44 -112,60 -163,152 -163,319 0,60 3,81 6,98 10,63 47,138 89,198 14,20 22,31 81,109l83 104c40,52 70,84 83,105 31,50 48,80 48,114 0,39 -24,108 -136,108 -58,0 -77,-7 -121,-23 -22,-8 -37,-13 -42,-15 -18,-6 -21,-7 -41,-11l-6 -1c-1,0 -2,-1 -5,-1z"/>
  <path class="fil1" d="M4397 1267l0 -14 0 -679c1,-10 1,-20 1,-32 0,-12 -2,-22 -6,-30 -6,-13 -15,-18 -28,-18l-140 0c-6,0 -79,-1 -89,-1 -10,0 -20,4 -29,14 -10,10 -8,20 -8,79 0,4 0,11 1,23l0 671 0 67 0 17 0 148c-2,60 -6,82 -8,93 -7,25 -21,45 -43,61 -21,16 -45,24 -70,24 -43,0 -115,-19 -115,-148 0,-2 0,-5 0,-9l0 -974 0 0c0,-7 0,-13 0,-19 0,-20 -1,-43 -46,-43l-4 0c-69,1 -99,0 -107,0 -14,0 -83,0 -86,0 -19,0 -43,3 -49,19 -1,4 -3,14 -4,43l0 0 0 4c0,15 -1,35 -1,61 0,2 1,5 1,8l0 1011 1 0c4,94 23,164 58,209 17,22 43,45 80,68 37,23 74,41 110,53 37,11 102,17 192,17 69,0 128,-10 175,-30 102,-44 170,-111 202,-198 11,-28 12,-46 13,-54 1,-11 2,-35 2,-77l0 -360c0,-1 0,-2 0,-2z"/>
 </g>
</svg>
